# xmcd
#
# Track frame offsets: 
#        150
#        18898
#        33827
#        47025
#        63018
#        84206
#        102983
#        119226
#        142986
#        160845
#        177196
#        193645
#        213677
#        230241
#        246739
#
# Disc length: 3593 seconds
#
# Revision: 0
# Processed by: cddbd v1.5.2PL0 Copyright (c) Steve Scherf et al.
# Submitted via: ExactAudioCopyFreeDBPlugin 1.0
#
DISCID=d10e070f
DTITLE=王雅洁 - DTS51小调歌后II
DYEAR=2006
DGENRE=DTS
TTITLE0=怨苍天变了心
TTITLE1=走过咖啡屋
TTITLE2=昨夜星辰
TTITLE3=恼人的秋风
TTITLE4=Way Back Into Love
TTITLE5=追梦人
TTITLE6=梦寐以求
TTITLE7=恋曲1990
TTITLE8=我的妈妈
TTITLE9=粉红色的回忆
TTITLE10=婉君
TTITLE11=鸳鸯弦
TTITLE12=美酒加咖啡
TTITLE13=我怎么哭了
TTITLE14=吻和泪
EXTD=
EXTT0=
EXTT1=
EXTT2=
EXTT3=
EXTT4=
EXTT5=
EXTT6=
EXTT7=
EXTT8=
EXTT9=
EXTT10=
EXTT11=
EXTT12=
EXTT13=
EXTT14=
PLAYORDER=
